HIERARCHY
ROOT Hips
{
	OFFSET 0.000000 0.000000 0.000000
	CHANNELS 6 Xposition Yposition Zposition Xrotation Yrotation Zrotation
	JOINT LeftUpLeg_virtual
	{
		OFFSET 0.000000 0.000000 0.000000
		CHANNELS 3 Xrotation Yrotation Zrotation
		JOINT LeftUpLeg
		{
			OFFSET 15.427100 -6.655098 0.678600
			CHANNELS 3 Xrotation Yrotation Zrotation
			JOINT LeftLeg
			{
				OFFSET 4.081073 -39.591068 13.024000
				CHANNELS 3 Xrotation Yrotation Zrotation
				JOINT LeftFoot
				{
					OFFSET -4.081074 -37.707932 -15.979700
					CHANNELS 3 Xrotation Yrotation Zrotation
					JOINT LeftToeBase
					{
						OFFSET 5.346399 -15.068900 20.645000
						CHANNELS 3 Xrotation Yrotation Zrotation
						JOINT LeftToe_End
						{
							OFFSET 2.754700 0.931300 11.300900
							CHANNELS 3 Xrotation Yrotation Zrotation
							End Site
							{
								OFFSET 0 0 0
							}
						}
					}
				}
			}
		}
	}
	JOINT RightUpLeg_virtual
	{
		OFFSET 0.000000 0.000000 0.000000
		CHANNELS 3 Xrotation Yrotation Zrotation
		JOINT RightUpLeg
		{
			OFFSET -15.569500 -6.655098 0.678600
			CHANNELS 3 Xrotation Yrotation Zrotation
			JOINT RightLeg
			{
				OFFSET -4.081825 -39.591045 13.023800
				CHANNELS 3 Xrotation Yrotation Zrotation
				JOINT RightFoot
				{
					OFFSET 4.081824 -37.707954 -15.979600
					CHANNELS 3 Xrotation Yrotation Zrotation
					JOINT RightToeBase
					{
						OFFSET -5.346400 -15.068900 20.645000
						CHANNELS 3 Xrotation Yrotation Zrotation
						JOINT RightToe_End
						{
							OFFSET -2.754700 0.931300 11.300900
							CHANNELS 3 Xrotation Yrotation Zrotation
							End Site
							{
								OFFSET 0 0 0
							}
						}
					}
				}
			}
		}
	}
	JOINT Spine_virtual
	{
		OFFSET 0.000000 0.000000 0.000000
		CHANNELS 3 Xrotation Yrotation Zrotation
		JOINT Spine
		{
			OFFSET -0.279200 12.230698 -2.892100
			CHANNELS 3 Xrotation Yrotation Zrotation
			JOINT Spine1
			{
				OFFSET -0.232667 10.192268 -1.242267
				CHANNELS 3 Xrotation Yrotation Zrotation
				JOINT Spine1_split
				{
					OFFSET -0.232667 10.192268 -1.242267
					CHANNELS 3 Xrotation Yrotation Zrotation
					JOINT Spine2
					{
						OFFSET -0.232667 10.192268 -1.242267
						CHANNELS 3 Xrotation Yrotation Zrotation
						JOINT Neck_virtual
						{
							OFFSET 0.000000 0.000000 0.000000
							CHANNELS 3 Xrotation Yrotation Zrotation
							JOINT Neck
							{
								OFFSET -0.418800 17.814194 8.416900
								CHANNELS 3 Xrotation Yrotation Zrotation
								JOINT Head
								{
									OFFSET 0.000000 7.031097 3.806800
									CHANNELS 3 Xrotation Yrotation Zrotation
									JOINT HeadTop_End
									{
										OFFSET 0.000000 24.646606 12.978600
										CHANNELS 3 Xrotation Yrotation Zrotation
										End Site
										{
											OFFSET 0 0 0
										}
									}
								}
							}
						}
						JOINT LeftShoulder_virtual
						{
							OFFSET 0.000000 0.000000 0.000000
							CHANNELS 3 Xrotation Yrotation Zrotation
							JOINT LeftShoulder
							{
								OFFSET 8.476499 7.247704 -3.868750
								CHANNELS 3 Xrotation Yrotation Zrotation
								JOINT LeftShoulder_split
								{
									OFFSET 8.476499 7.247704 -3.868750
									CHANNELS 3 Xrotation Yrotation Zrotation
									JOINT LeftArm
									{
										OFFSET 9.308998 -2.777710 0.208600
										CHANNELS 3 Xrotation Yrotation Zrotation
										JOINT LeftForeArm
										{
											OFFSET 29.972298 0.000000 0.000000
											CHANNELS 3 Xrotation Yrotation Zrotation
											JOINT LeftHand
											{
												OFFSET 26.026505 0.000000 0.000000
												CHANNELS 3 Xrotation Yrotation Zrotation
												End Site
												{
													OFFSET 0 0 0
												}
											}
										}
									}
								}
							}
						}
						JOINT RightShoulder_virtual
						{
							OFFSET 0.000000 0.000000 0.000000
							CHANNELS 3 Xrotation Yrotation Zrotation
							JOINT RightShoulder
							{
								OFFSET -7.570500 7.247704 -3.868750
								CHANNELS 3 Xrotation Yrotation Zrotation
								JOINT RightShoulder_split
								{
									OFFSET -7.570500 7.247704 -3.868750
									CHANNELS 3 Xrotation Yrotation Zrotation
									JOINT RightArm
									{
										OFFSET -9.308998 -2.777710 0.208500
										CHANNELS 3 Xrotation Yrotation Zrotation
										JOINT RightForeArm
										{
											OFFSET -29.972300 0.000000 0.000000
											CHANNELS 3 Xrotation Yrotation Zrotation
											JOINT RightHand
											{
												OFFSET -26.026505 0.000000 0.000000
												CHANNELS 3 Xrotation Yrotation Zrotation
												End Site
												{
													OFFSET 0 0 0
												}
											}
										}
									}
								}
							}
						}
					}
				}
			}
		}
	}
}
MOTION
Frames: 4
Frame Time: 0.03333333
2.990582 87.983879 6.574963 0.000000 0.000000 0.000000 -29.530384 -42.334407 -19.078165 1.429471 10.989228 4.227149 30.825788 0.422002 -5.539481 -15.278880 6.383155 2.551596 -4.757284 0.327957 -0.240732 0.000000 0.000000 0.000000 -27.523885 -40.507202 -18.106586 17.146225 -9.909939 -9.706596 19.359903 8.943804 -0.850358 -17.025867 -15.642470 8.350124 -3.826537 0.514844 0.657061 0.000000 0.000000 0.000000 -28.945618 -41.515037 -19.360583 11.169247 -4.552741 0.523422 3.120015 -1.373038 0.011125 0.614489 1.157683 0.078452 0.000000 0.000000 0.000000 3.622194 -2.150015 -0.034372 1.825165 1.878104 -3.287542 -6.693390 -1.331366 4.231996 0.000000 0.000000 0.000000 3.515804 -2.495803 0.169235 0.943650 -15.295102 -10.999835 0.700256 -1.499848 -0.522002 -21.081975 0.343786 -38.883977 2.225345 -67.570706 2.048044 0.000000 0.000000 0.000000 2.519616 -2.503414 0.074853 -0.023841 11.374487 16.063551 1.474583 3.416369 -2.053670 -10.201117 -7.285282 62.244047 -0.254198 42.074109 1.245386 0.000000 0.000000 0.000000 
3.711477 87.859253 7.600246 0.000000 0.000000 0.000000 -30.576127 -44.771152 -20.753957 2.718241 12.752757 4.712520 29.238998 0.416846 -7.673172 -15.987048 8.015367 6.180146 -4.778659 0.172897 0.170648 0.000000 0.000000 0.000000 -28.270146 -42.033558 -19.332314 16.347177 -10.263109 -10.444039 19.576765 9.211462 -2.206459 -15.686530 -15.389024 9.219003 -3.554049 0.544811 0.344757 0.000000 0.000000 0.000000 -30.017237 -43.200052 -20.735240 11.231856 -4.545826 0.376813 3.154548 -1.340854 -0.025595 0.535156 1.054988 0.064147 0.000000 0.000000 0.000000 3.557397 -2.117753 -0.036655 1.920235 1.847135 -3.292223 -6.526308 -1.098419 3.978183 0.000000 0.000000 0.000000 3.543480 -2.447228 0.164276 0.993052 -15.392313 -10.961427 0.621540 -1.528873 -0.510563 -20.885800 0.344260 -38.862141 2.221657 -67.684907 2.030705 0.000000 0.000000 0.000000 2.620881 -2.432350 0.067013 0.020429 11.307230 16.044473 1.414037 3.490390 -1.965446 -10.175986 -7.344648 62.389243 -0.200693 41.979224 1.213762 0.000000 0.000000 0.000000 
4.376181 87.739853 8.613129 0.000000 0.000000 0.000000 -31.913680 -47.070617 -22.591168 3.779147 13.891821 4.960482 28.045551 0.388637 -9.432766 -16.919975 9.705667 9.063800 -4.547160 0.055293 0.327339 0.000000 0.000000 0.000000 -29.079325 -43.490249 -20.558492 15.478472 -10.312140 -11.036900 19.979570 8.894123 -3.560483 -14.399075 -15.464259 9.405159 -3.243557 0.601891 0.250969 0.000000 0.000000 0.000000 -31.227837 -44.768489 -22.243756 11.233519 -4.482840 0.187666 3.196598 -1.302987 -0.034082 0.503800 0.948176 0.096489 0.000000 0.000000 0.000000 3.529239 -2.093770 -0.025747 2.054156 1.791723 -3.298015 -6.371685 -0.991487 3.795085 0.000000 0.000000 0.000000 3.623704 -2.411364 0.175353 1.067147 -15.437315 -10.829570 0.504032 -1.614615 -0.583027 -20.712948 0.313770 -38.910256 2.228678 -67.748954 2.040802 0.000000 0.000000 0.000000 2.768998 -2.371019 0.085950 0.051597 11.267066 16.033756 1.426508 3.557456 -1.867380 -10.077551 -7.420052 62.399044 -0.155410 42.158738 1.178805 0.000000 0.000000 0.000000 
4.952462 87.712395 9.577667 0.000000 0.000000 0.000000 -33.335035 -48.891976 -24.400310 4.519064 14.392969 4.983662 27.210994 0.331156 -10.686395 -17.798011 11.352607 11.048134 -4.018013 0.017179 0.177059 0.000000 0.000000 0.000000 -30.056627 -45.027179 -21.912125 14.598906 -9.992089 -11.290312 20.542050 7.988072 -4.836090 -13.143383 -15.794083 9.011215 -3.278051 0.663046 0.382398 0.000000 0.000000 0.000000 -32.584319 -46.263754 -23.884333 11.166099 -4.376746 0.000428 3.249975 -1.286361 -0.009224 0.573128 0.799916 0.241683 0.000000 0.000000 0.000000 3.556611 -2.084870 0.008159 2.155635 1.712462 -3.281294 -6.346359 -1.014910 3.693406 0.000000 0.000000 0.000000 3.738597 -2.400096 0.201654 1.146452 -15.435311 -10.643271 0.407076 -1.716559 -0.724166 -20.669836 0.307304 -39.013101 2.278922 -67.827849 2.118193 0.000000 0.000000 0.000000 2.920210 -2.338850 0.125221 0.059365 11.253514 16.061463 1.499973 3.645854 -1.774778 -9.956467 -7.509136 62.239054 -0.138715 42.498888 1.153213 0.000000 0.000000 0.000000 
